<?xml version="1.0" standalone="no"?><!DOCTYPE svg PUBLIC "-//W3C//DTD SVG 1.1//EN" "http://www.w3.org/Graphics/SVG/1.1/DTD/svg11.dtd"><svg t="1694344058527" class="icon" viewBox="0 0 1024 1024" version="1.1" xmlns="http://www.w3.org/2000/svg" p-id="6766" xmlns:xlink="http://www.w3.org/1999/xlink" width="128" height="128"><path d="M782.802 129.086c3.079 0 5.884 2.805 5.884 5.884v744.58L561.591 601.177 512 540.387l-49.591 60.789-227.095 278.375v-744.58c0-3.08 2.805-5.884 5.884-5.884h541.604m0-64.001H241.198c-38.436 0-69.884 31.448-69.884 69.884v768.729c0.276 33.712 27.781 55.214 56.065 55.214 15.368 0 30.969-6.353 42.548-20.546L512 641.633 753.023 937.08c11.68 14.317 27.793 20.773 43.661 20.773 28.115 0 55.458-20.27 55.993-53.003 0.006-0.383 0.009-0.767 0.009-1.151V134.971c0-38.437-31.447-69.885-69.884-69.885z" p-id="6767" fill="#515151"></path></svg>