<?xml version="1.0" standalone="no"?><!DOCTYPE svg PUBLIC "-//W3C//DTD SVG 1.1//EN" "http://www.w3.org/Graphics/SVG/1.1/DTD/svg11.dtd"><svg t="1694776427498" class="icon" viewBox="0 0 1024 1024" version="1.1" xmlns="http://www.w3.org/2000/svg" p-id="6806" xmlns:xlink="http://www.w3.org/1999/xlink" width="128" height="128"><path d="M512 42.666667C252.8 42.666667 42.666667 252.8 42.666667 512s210.133333 469.333333 469.333333 469.333333 469.333333-210.133333 469.333333-469.333333S771.2 42.666667 512 42.666667zM128 512a384 384 0 1 1 768 0 384 384 0 0 1-768 0z m154.282667 16.384a53.333333 53.333333 0 0 1 0-75.434667l161.834666-161.834666a96 96 0 0 1 135.765334 0l161.834666 161.834666a53.333333 53.333333 0 0 1-75.434666 75.434667l-100.949334-100.949333V725.333333a53.333333 53.333333 0 1 1-106.666666 0v-297.898666l-100.949334 100.949333a53.333333 53.333333 0 0 1-75.434666 0z" fill="#515151" p-id="6807"></path></svg>