<?xml version="1.0" standalone="no"?><!DOCTYPE svg PUBLIC "-//W3C//DTD SVG 1.1//EN" "http://www.w3.org/Graphics/SVG/1.1/DTD/svg11.dtd"><svg t="1694341654045" class="icon" viewBox="0 0 1024 1024" version="1.1" xmlns="http://www.w3.org/2000/svg" p-id="4030" xmlns:xlink="http://www.w3.org/1999/xlink" width="128" height="128"><path d="M487.009524 113.078857a56.07619 56.07619 0 0 1 73.216 21.918476l1.901714 3.535238 100.400762 203.215239 224.402286 32.572952a56.07619 56.07619 0 0 1 33.938285 92.647619l-2.876952 3.023238-162.328381 158.061714 38.326857 223.256381a56.07619 56.07619 0 0 1-77.726476 60.854857l-3.608381-1.706666-200.801524-105.472-200.801524 105.447619a56.07619 56.07619 0 0 1-81.871238-55.344762l0.512-3.779048 38.351238-223.256381-162.32838-158.061714a56.07619 56.07619 0 0 1 27.282285-94.98819l3.779048-0.682667 224.377905-32.572952 100.425142-203.215239a56.07619 56.07619 0 0 1 25.429334-25.453714z m-77.287619 295.521524l-228.205715 33.133714 165.132191 160.743619-39.009524 227.132953 204.214857-107.25181 204.190476 107.25181-39.009523-227.132953 165.13219-160.743619-228.205714-33.133714-102.107429-206.701714-102.15619 206.701714z" p-id="4031" fill="#515151"></path></svg>