<?xml version="1.0" standalone="no"?><!DOCTYPE svg PUBLIC "-//W3C//DTD SVG 1.1//EN" "http://www.w3.org/Graphics/SVG/1.1/DTD/svg11.dtd"><svg t="1694242594663" class="icon" viewBox="0 0 1042 1024" version="1.1" xmlns="http://www.w3.org/2000/svg" p-id="1045" xmlns:xlink="http://www.w3.org/1999/xlink" width="130.25" height="128"><path d="M513.828571 261.485714c-140.8 0-256 115.2-256 256s115.2 256 256 256 256-115.2 256-256-115.2-256-256-256z m0 440.685715c-100.571429 0-182.857143-82.285714-182.857142-182.857143s82.285714-182.857143 182.857142-182.857143 182.857143 82.285714 182.857143 182.857143-82.285714 182.857143-182.857143 182.857143zM550.4 822.857143h-73.142857v128h73.142857v-128zM550.4 73.142857h-73.142857v128h73.142857V73.142857zM755.072 710.180571l-51.712 51.712 90.514286 90.514286 51.712-51.730286-90.514286-90.514285zM229.540571 183.478857L177.773714 235.154286l90.422857 90.587428 51.766858-51.675428-90.422858-90.587429zM952.685714 475.428571h-128v73.142858h128v-73.142858zM202.971429 475.428571h-128v73.142858h128v-73.142858zM798.171429 185.910857l-90.422858 90.605714 51.766858 51.657143 90.422857-90.587428-51.748572-51.675429zM266.806857 711.68l-90.514286 90.514286L228.022857 853.942857l90.514286-90.514286-51.730286-51.730285z" fill="#515151" p-id="1046"></path></svg>